Coordinates
version=1
nRows=8
nColumns=40
inDegrees=yes

Units are S.I. units (second, meters, Newtons, ...)
If the header above contains a line with 'inDegrees', this indicates whether rotational values are in degrees (yes) or radians (no).

endheader
time	pelvis_tilt	pelvis_list	pelvis_rotation	pelvis_tx	pelvis_ty	pelvis_tz	hip_flexion_r	hip_adduction_r	hip_rotation_r	knee_angle_r	knee_angle_r_beta	ankle_angle_r	subtalar_angle_r	mtp_angle_r	hip_flexion_l	hip_adduction_l	hip_rotation_l	knee_angle_l	knee_angle_l_beta	ankle_angle_l	subtalar_angle_l	mtp_angle_l	lumbar_extension	lumbar_bending	lumbar_rotation	arm_flex_r	arm_add_r	arm_rot_r	elbow_flex_r	pro_sup_r	wrist_flex_r	wrist_dev_r	arm_flex_l	arm_add_l	arm_rot_l	elbow_flex_l	pro_sup_l	wrist_flex_l	wrist_dev_l
      4.68500000	    -13.07544792	      4.45645319	     -1.03034644	     -0.16365372	      1.27281612	     -0.86634269	     15.95911612	     -8.21903401	    -23.13004053	      3.53477838	      0.06169352	    -39.06135033	      0.00000000	      0.00000000	     16.77542811	     -4.22412710	    -24.63793753	      7.51712619	      0.13119860	    -38.91508444	      0.00000000	      0.00000000	     -8.50420548	     -4.46021505	     -5.79139787	    -22.85489643	    -52.70551614	     40.07248836	    100.96313725	     87.55587532	      0.00000000	      0.00000000	    -31.61265366	    -53.07922126	     30.59682621	     99.53747649	     88.07438749	      0.00000000	      0.00000000
      4.69000000	    -12.68397322	      4.34266528	     -1.24709596	     -0.16270093	      1.28174662	     -0.86575552	     15.72542449	     -8.00012107	    -22.03133449	      3.89831364	      0.06803841	    -39.08000844	      0.00000000	      0.00000000	     16.36654758	     -4.32628367	    -23.50389188	      7.62319004	      0.13304977	    -38.89686416	      0.00000000	      0.00000000	     -8.71735918	     -4.39933562	     -5.61000846	    -22.26690567	    -52.97092212	     40.97115663	    100.83272406	     87.55790987	      0.00000000	      0.00000000	    -30.55939179	    -53.23994837	     31.85768216	     99.22203318	     88.06920168	      0.00000000	      0.00000000
      4.69500000	    -12.23165203	      4.33548352	     -1.43250534	     -0.16149771	      1.29054210	     -0.86515712	     15.35851783	     -7.88248363	    -21.18703529	      4.03632434	      0.07044715	    -39.14736962	      0.00000000	      0.00000000	     15.86476704	     -4.31448491	    -22.67102119	      7.67271624	      0.13391416	    -38.90940847	      0.00000000	      0.00000000	     -8.91426905	     -4.46444812	     -5.38166781	    -21.64753528	    -53.19705064	     41.99234488	    100.60575531	     87.50529859	      0.00000000	      0.00000000	    -29.22575007	    -53.53515712	     33.57848304	     98.86406602	     88.06667599	      0.00000000	      0.00000000
      4.70000000	    -11.81643194	      4.31983939	     -1.65629254	     -0.16013748	      1.29893575	     -0.86443829	     15.03150944	     -7.76624240	    -20.43940883	      4.12512427	      0.07199700	    -39.12321423	      0.00000000	      0.00000000	     15.39535424	     -4.34440774	    -22.12100013	      7.73450209	      0.13499253	    -38.85406516	      0.00000000	      0.00000000	     -9.13709586	     -4.53037089	     -5.27531468	    -21.37371819	    -53.36916751	     42.48098871	    100.53301945	     87.50353228	      0.00000000	      0.00000000	    -28.64477895	    -53.61960666	     34.28168672	     98.69656455	     88.06290266	      0.00000000	      0.00000000
      4.70500000	    -11.43243513	      4.33252958	     -1.74285527	     -0.15842658	      1.30714747	     -0.86385004	     14.52491264	     -7.65772394	    -19.94152927	      3.73109111	      0.06511982	    -39.13827304	      0.00000000	      0.00000000	     14.85633673	     -4.26046559	    -21.46490878	      7.49125592	      0.13074708	    -38.85033613	      0.00000000	      0.00000000	     -9.19622127	     -4.62178365	     -5.21784016	    -20.80290254	    -53.62938303	     43.40403718	    100.40408258	     87.50328625	      0.00000000	      0.00000000	    -27.63998554	    -53.89542738	     35.71426098	     98.43207743	     88.07150695	      0.00000000	      0.00000000
      4.71000000	    -11.10250779	      4.32181195	     -1.84417700	     -0.15691649	      1.31505079	     -0.86313951	     14.11671804	     -7.53093204	    -19.64076309	      3.35450586	      0.05854717	    -39.08855029	      0.00000000	      0.00000000	     14.42236024	     -4.25907834	    -21.24615518	      7.37237981	      0.12867230	    -38.77989045	      0.00000000	      0.00000000	     -9.24051209	     -4.67757896	     -4.40089374	    -22.35388594	    -53.34763910	     42.02643020	    100.39102126	     87.46962278	      0.00000000	      0.00000000	    -24.97079984	    -54.64229060	     38.93531426	     98.27465149	     88.01137896	      0.00000000	      0.00000000
      4.71500000	    -10.79239960	      4.34257308	     -1.84114699	     -0.15507330	      1.32269262	     -0.86250909	     13.64095399	     -7.45395112	    -19.73523586	      2.81631066	      0.04915389	    -39.02697541	      0.00000000	      0.00000000	     13.93829676	     -4.18538979	    -21.13709530	      7.12313732	      0.12432220	    -38.73256624	      0.00000000	      0.00000000	     -9.24612108	     -4.78348001	     -4.58188149	    -22.00584309	    -53.47626451	     42.53419524	    100.33819661	     87.47170439	      0.00000000	      0.00000000	    -24.64147511	    -54.75335825	     39.59828498	     98.14641026	     88.01204172	      0.00000000	      0.00000000
      4.72000000	    -10.78749825	      4.39927485	     -1.79261118	     -0.15334228	      1.32972251	     -0.86190681	     13.55508105	     -7.43496131	    -19.95368670	      2.44108655	      0.04260500	    -38.80917230	      0.00000000	      0.00000000	     13.82242872	     -4.10287870	    -21.29957387	      6.91083656	      0.12061685	    -38.58288026	      0.00000000	      0.00000000	     -8.92437802	     -4.91059732	     -4.77500533	    -21.98631140	    -53.48612060	     42.59586111	    100.31688353	     87.47012268	      0.00000000	      0.00000000	    -24.66659088	    -54.82733190	     39.76609841	     98.10365406	     88.01712160	      0.00000000	      0.00000000
